<svg width="409" height="70" viewBox="0 0 409 70" fill="none" xmlns="http://www.w3.org/2000/svg">
<path fill-rule="evenodd" clip-rule="evenodd" d="M6.98884 25.1787C5.84306 28.1008 5.06458 31.21 4.65341 34.5064C4.01969 39.5871 4.36545 44.2549 5.6907 48.5099C7.02388 52.7014 9.12839 56.3531 12.0042 59.465C14.9441 62.5769 18.5471 64.9902 22.8132 66.7049C27.1512 68.3561 31.9762 69.1817 37.2882 69.1817C43.4962 69.1817 49.1669 68.1021 54.3002 65.9428C59.5055 63.72 63.9896 60.6082 67.7527 56.6072L57.0113 45.7473C54.5184 48.2876 51.8768 50.2246 49.0865 51.5583C46.3601 52.892 43.3969 53.5588 40.1969 53.5588C37.4449 53.5588 34.9724 53.1142 32.7793 52.2251C30.5862 51.336 28.7606 50.0659 27.3026 48.4146C25.9165 46.6999 24.89 44.6677 24.2231 42.3179C23.6202 39.9681 23.4969 37.3643 23.8534 34.5064C24.2099 31.6486 24.9827 29.0448 26.1718 26.695C26.4505 26.1723 26.7429 25.6668 27.049 25.1787L6.98884 25.1787ZM80.2654 25.1787C79.3579 26.1001 78.5057 27.0819 77.709 28.1239C74.714 32.1249 72.8917 36.7292 72.2421 41.9368C71.5925 47.1445 72.2622 51.7806 74.2513 55.8451C76.3122 59.8461 79.4081 62.9897 83.5389 65.276C87.6697 67.5623 92.5831 68.7054 98.2791 68.7054C103.975 68.7054 109.174 67.5623 113.875 65.276C118.64 62.9897 122.52 59.8461 125.515 55.8451C128.518 51.7806 130.345 47.1445 130.994 41.9368C131.644 36.7292 130.97 32.1249 128.973 28.1239C128.453 27.0819 127.858 26.1001 127.188 25.1787L80.2654 25.1787ZM141.534 25.1787L136.212 67.8481L154.452 67.8481L157.565 42.8895C157.921 40.0316 158.658 37.7136 159.776 35.9354C160.894 34.1571 162.304 32.8552 164.007 32.0296C165.718 31.1405 167.534 30.696 169.454 30.696C172.142 30.696 174.115 31.5533 175.373 33.268C176.703 34.9192 177.138 37.5866 176.679 41.27L173.364 67.8481L191.604 67.8481L195.287 38.3169C195.953 32.9822 195.535 28.6319 194.035 25.266C194.023 25.2369 194.01 25.2078 193.997 25.1787H158.91L156.366 25.1787L141.534 25.1787ZM202.906 25.1787L202.099 31.6486H209.683L207.52 48.9862C206.696 55.591 207.934 60.5447 211.234 63.8471C214.542 67.086 219.524 68.7054 226.18 68.7054C228.612 68.7054 230.98 68.4514 233.283 67.9433C235.579 67.4988 237.558 66.7684 239.221 65.7523L236.289 53.0825C234.618 54.1621 232.695 54.7019 230.519 54.7019C228.919 54.7019 227.67 54.1939 226.773 53.1777C225.884 52.0981 225.554 50.6374 225.784 48.7957L227.923 31.6486L239.827 31.6486L240.634 25.1787L228.73 25.1787L210.49 25.1787H202.906ZM252.456 25.1787L255.635 33.6491C257.601 32.2519 259.912 31.1723 262.567 30.4102C265.23 29.5846 267.809 29.1718 270.305 29.1718C274.145 29.1718 276.83 29.9656 278.36 31.5533C279.816 32.9391 280.463 34.8761 280.301 37.3643H269.955C264.579 37.3643 260.116 37.9994 256.566 39.2695C253.023 40.4762 250.273 42.2544 248.316 44.6042C246.431 46.8905 245.29 49.6213 244.894 52.7967C244.522 55.7816 244.921 58.4806 246.092 60.8939C247.327 63.3072 249.298 65.2125 252.003 66.6097C254.709 68.0068 258.142 68.7054 262.302 68.7054C266.846 68.7054 270.605 67.8163 273.579 66.0381C275.623 64.802 277.297 63.1796 278.602 61.171L277.769 67.8481H294.761L298.337 39.1743C299.054 33.4331 298.488 28.7679 296.642 25.1787L252.456 25.1787ZM306.124 25.1787L305.317 31.6486L312.901 31.6486L310.739 48.9862C309.915 55.591 311.153 60.5447 314.453 63.8471C317.761 67.086 322.743 68.7054 329.399 68.7054C331.831 68.7054 334.199 68.4514 336.502 67.9433C338.798 67.4988 340.777 66.7684 342.44 65.7523L339.508 53.0825C337.837 54.1621 335.914 54.7019 333.738 54.7019C332.138 54.7019 330.889 54.1939 329.992 53.1777C329.103 52.0981 328.773 50.6374 329.003 48.7957L331.141 31.6486H343.045L343.852 25.1787L331.948 25.1787L313.708 25.1787H306.124ZM355.703 25.1787C354.795 26.1001 353.943 27.0819 353.147 28.1239C350.151 32.1249 348.329 36.7292 347.68 41.9368C347.03 47.1445 347.7 51.7806 349.689 55.8451C351.75 59.8461 354.846 62.9897 358.976 65.276C363.107 67.5623 368.021 68.7054 373.717 68.7054C379.413 68.7054 384.611 67.5623 389.312 65.276C394.078 62.9897 397.958 59.8461 400.953 55.8451C403.956 51.7806 405.782 47.1445 406.432 41.9368C407.081 36.7292 406.407 32.1249 404.411 28.1239C403.89 27.0819 403.296 26.1001 402.626 25.1787L355.703 25.1787ZM278.588 51.2725L279.147 46.7952H271.275C268.331 46.7952 266.191 47.2715 264.857 48.2241C263.586 49.1767 262.851 50.4469 262.653 52.0346C262.455 53.6223 262.905 54.8925 264.002 55.8451C265.099 56.7977 266.704 57.274 268.816 57.274C270.8 57.274 272.651 56.7977 274.37 55.8451C276.161 54.8289 277.567 53.3048 278.588 51.2725ZM105.82 52.892C104.101 53.8446 102.185 54.3209 100.073 54.3209C98.0254 54.3209 96.2288 53.8446 94.6836 52.892C93.2024 51.9393 92.0647 50.5422 91.2704 48.7004C90.5481 46.7952 90.3493 44.5407 90.6741 41.9368C90.9989 39.333 91.7522 37.142 92.934 35.3638C94.1877 33.5221 95.674 32.1249 97.3928 31.1723C99.1756 30.2196 101.091 29.7433 103.139 29.7433C105.251 29.7433 107.048 30.2196 108.529 31.1723C110.074 32.1249 111.212 33.5221 111.942 35.3638C112.68 37.142 112.887 39.333 112.562 41.9368C112.237 44.5407 111.476 46.7952 110.278 48.7004C109.089 50.5422 107.602 51.9393 105.82 52.892ZM381.257 52.892C379.538 53.8446 377.623 54.3209 375.511 54.3209C373.463 54.3209 371.666 53.8446 370.121 52.892C368.64 51.9393 367.502 50.5422 366.708 48.7004C365.986 46.7952 365.787 44.5407 366.112 41.9368C366.436 39.333 367.19 37.142 368.371 35.3638C369.625 33.5221 371.111 32.1249 372.83 31.1723C374.613 30.2196 376.529 29.7433 378.577 29.7433C380.689 29.7433 382.485 30.2196 383.966 31.1723C385.511 32.1249 386.649 33.5221 387.379 35.3638C388.118 37.142 388.324 39.333 388 41.9368C387.675 44.5407 386.914 46.7952 385.716 48.7004C384.526 50.5422 383.04 51.9393 381.257 52.892Z" fill="black"/>
<path fill-rule="evenodd" clip-rule="evenodd" d="M20.4515 25.5263H0.391278C1.01146 23.9446 1.73926 22.4178 2.57467 20.9458C4.96142 16.6908 7.98087 13.0073 11.633 9.89541C15.3492 6.78353 19.5502 4.40199 24.2362 2.75078C28.9941 1.03607 34.029 0.178711 39.341 0.178711C45.549 0.178711 50.9504 1.25835 55.545 3.41762C60.2037 5.57688 63.9115 8.68877 66.6686 12.7533L53.218 23.6131C51.3588 21.0728 49.2004 19.1358 46.7428 17.8021C44.3491 16.4685 41.5523 15.8016 38.3523 15.8016C35.6003 15.8016 33.0169 16.2462 30.602 17.1353C28.1871 18.0244 26.0407 19.3263 24.1628 21.041C22.7586 22.3249 21.5215 23.82 20.4515 25.5263ZM120.591 25.5263H73.6679C76.245 22.9098 79.269 20.7797 82.7399 19.1358C87.4411 16.8495 92.6397 15.7064 98.3357 15.7064C104.032 15.7064 108.945 16.8495 113.076 19.1358C116.184 20.7797 118.689 22.9098 120.591 25.5263ZM290.044 25.5263H245.859L244.426 21.7079C247.608 19.8026 251.31 18.342 255.532 17.3258C259.827 16.2462 264.022 15.7064 268.118 15.7064C276.566 15.7064 282.853 17.6434 286.978 21.5174C288.233 22.6575 289.255 23.9938 290.044 25.5263ZM396.028 25.5263H349.105C351.683 22.9098 354.707 20.7797 358.177 19.1358C362.879 16.8495 368.077 15.7064 373.773 15.7064C379.469 15.7064 384.383 16.8495 388.513 19.1358C391.622 20.7797 394.127 22.9098 396.028 25.5263ZM337.255 25.5263H325.351H307.111H299.527L300.407 18.469H307.991L309.667 5.03706H327.907L326.231 18.469H338.135L337.255 25.5263ZM234.036 25.5263H222.132H203.892H196.308L197.188 18.469H204.772L206.448 5.03706H224.688L223.012 18.469H234.916L234.036 25.5263ZM187.4 25.5263H152.312H149.768H134.936L136.054 16.5637H153.43L152.725 22.2161C154.31 20.7405 156.062 19.5232 157.981 18.5642C161.674 16.659 165.697 15.7064 170.049 15.7064C174.081 15.7064 177.626 16.532 180.684 18.1832C183.724 19.7571 185.962 22.2048 187.4 25.5263Z" fill="black"/>
</svg>
